<svg xmlns="http://www.w3.org/2000/svg" viewBox="30 3 108 108" width="108" height="108">
  <path fill="#FF8700" d="m83.7 8.6c-24.7 0-48.5 19.8-48.6 48.4 0 22.6 16.2 48.6 48.7 48.6 3.5 0 7-0.3 10.5-1 3.6-0.8 2.4-6.2-1.3-5.8-3 0.7-6 1-9.1 1-27.4 0-43.2-21.1-43.2-42.8 0-21.6 18.2-43 42.6-43 8.2 0 15.5 1.7 24.8 8.1l-2.2 1.2c-1.4 0.6-1.2 2.7 0.4 2.8l11.9 2c1.4 0.4 2.1-0.9 1.6-2l-4-12.3c-0.6-1.1-2.1-0.9-2.4 0.4l-1.3 3.6c-8.5-5.8-16.7-9.2-28.4-9.2zm35.9 23.2c-0.1 1.6 1.1 1.8 3.3 6.6 2.2 4.7 3.8 10.7 3.8 18.4 0 13.5-6.4 26.5-19.1 35.3l-0.7-3.1c-0.4-1.3-1.9-1.4-2.5 0l-5.6 11c-0.3 0.9 0.3 2.5 1.7 2.5h12.2c0.9 0.1 1.7-1.5 0.6-2.5l-3-3c11.9-7.6 21.7-20.6 21.7-40.1 0-10-2.9-19.1-8-27-1.9-2.2-4.3-0.4-5 1.2l0.6 0.7z"/>
  <path fill="#FF8700" d="m83.7 19.9c-20 0-37.5 16.8-37.5 37.2 0 18.7 13.8 36.7 37.4 36.7 19.8 0 37.4-16 37.4-36.7 0-20.2-17.1-37.2-37.3-37.2zm31.9 34.6h-18.3c-0.3-1.8-1-3.4-2-5.1l12.8-13.2c4.2 5.2 6.8 10.7 7.5 18.3zm-29.3-28.9c6.3 0.5 12.1 2.6 18 6.8l-13 12.7c-1.7-1-3.2-1.7-5.1-2.2l0.1-17.3zm-5.5 0v17.3c-1.9 0.3-3.7 1-5.1 2.2l-12.6-12.7c4.7-3.9 10.6-6.4 17.7-6.8zm-21.7 10.6 12.7 12.9c-0.9 1.4-1.6 3.1-1.9 5.3l-18.3 0.1c0.6-6.6 3.5-13.1 7.5-18.3zm-7.5 23.7h18.3c0.3 1.9 1 3.6 1.9 5.1l-12.6 12.7c-3.9-4.9-6.8-11.3-7.6-17.8zm11.5 21.5 12.6-12.5c1.7 1.1 3.3 1.8 5.1 2.1v17.5c-5.9-0.3-12.1-2.6-17.7-7.1zm11.7-24.3c0-4.4 3.6-8.9 8.7-8.9 4.4 0 8.5 3.4 8.6 8.4 0 4.9-4.2 9.5-9.4 9.4-4.3-0.2-7.9-3.6-7.9-8.9zm11.5 31.4-0.1-17.5c1.9-0.3 3.9-1 5.1-2.1l13 12.5c-5.4 4.2-11.7 6.8-18 7.1zm9-23.5c1-1.5 1.7-3.3 2-5.1h18.3c-0.4 6.2-2.9 12.5-7.5 17.8l-12.8-12.7z"/>
</svg>
